<svg width="355" height="434" viewBox="0 0 355 434" fill="none" xmlns="http://www.w3.org/2000/svg">
<g clip-path="url(#clip0_232_518)">
<rect x="355" y="81.5615" width="373" height="244" rx="20" transform="rotate(109.528 355 81.5615)" fill="url(#paint0_radial_232_518)"/>
<g clip-path="url(#clip1_232_518)">
<path d="M290.378 121.411L300.937 125.156L300.276 127.019L289.17 126.637L289.107 126.815L297.972 133.516L297.311 135.379L286.752 131.634L287.08 130.71L297.065 134.252L297.129 134.073L288.264 127.372L288.866 125.673L299.972 126.055L300.036 125.877L290.05 122.335L290.378 121.411Z" fill="white"/>
<path d="M284.976 135.971C285.237 135.236 285.624 134.649 286.136 134.21C286.648 133.77 287.242 133.5 287.919 133.398C288.595 133.296 289.309 133.38 290.063 133.648L290.244 133.712C290.999 133.979 291.606 134.364 292.067 134.87C292.528 135.374 292.818 135.958 292.94 136.623C293.06 137.287 292.991 137.986 292.73 138.721C292.47 139.457 292.083 140.043 291.571 140.483C291.059 140.922 290.464 141.192 289.789 141.293C289.113 141.394 288.398 141.311 287.644 141.044L287.463 140.98C286.709 140.712 286.102 140.326 285.64 139.822C285.179 139.317 284.889 138.733 284.767 138.07C284.646 137.406 284.716 136.706 284.976 135.971ZM285.791 136.26C285.488 137.114 285.522 137.887 285.895 138.579C286.267 139.27 286.905 139.776 287.81 140.097L287.93 140.14C288.835 140.461 289.649 140.471 290.374 140.168C291.099 139.865 291.612 139.286 291.915 138.432C292.218 137.578 292.179 136.818 291.809 136.121C291.439 135.425 290.802 134.917 289.897 134.596L289.776 134.553C288.871 134.232 288.055 134.225 287.33 134.532C286.604 134.839 286.09 135.416 285.791 136.26Z" fill="white"/>
<path d="M283.612 140.487L290.943 143.087L290.637 143.951L289.279 143.47L289.215 143.648C289.544 143.966 289.789 144.383 289.952 144.9C290.114 145.415 290.058 146.061 289.783 146.836C289.596 147.363 289.315 147.805 288.939 148.164C288.563 148.523 288.104 148.755 287.563 148.859C287.022 148.963 286.414 148.896 285.74 148.657L281.276 147.074L281.593 146.18L285.997 147.742C286.802 148.027 287.451 148.033 287.943 147.761C288.436 147.488 288.801 147.019 289.037 146.354C289.301 145.608 289.273 144.899 288.952 144.226C288.63 143.552 287.966 143.038 286.961 142.681L283.296 141.381L283.613 140.487L283.612 140.487Z" fill="white"/>
<path d="M289.345 151.614C289.423 151.395 289.563 151.238 289.766 151.142C289.97 151.047 290.182 151.039 290.404 151.117C290.626 151.196 290.797 151.341 290.89 151.541C290.983 151.742 290.991 151.951 290.914 152.17C290.836 152.39 290.693 152.559 290.497 152.652C290.3 152.744 290.085 152.749 289.854 152.667C289.623 152.585 289.473 152.451 289.373 152.253C289.273 152.056 289.264 151.842 289.345 151.614ZM280.906 148.117L288.237 150.717L287.92 151.611L280.589 149.011L280.906 148.117Z" fill="white"/>
<path d="M278.792 153.408C279.056 152.662 279.445 152.071 279.957 151.631C280.469 151.192 281.066 150.92 281.749 150.816C282.431 150.711 283.144 150.79 283.888 151.054L284.069 151.118C284.824 151.385 285.43 151.774 285.889 152.284C286.348 152.793 286.64 153.375 286.765 154.029C286.889 154.682 286.829 155.357 286.582 156.053C286.335 156.749 285.986 157.276 285.515 157.697C285.044 158.116 284.485 158.381 283.842 158.488C283.198 158.594 282.505 158.517 281.76 158.253L281.277 158.082L283.466 151.911C282.54 151.617 281.736 151.642 281.053 151.986C280.37 152.332 279.888 152.902 279.607 153.696C279.367 154.372 279.337 154.951 279.517 155.434C279.696 155.918 279.978 156.338 280.359 156.698L279.712 157.375C279.433 157.108 279.182 156.787 278.958 156.411C278.735 156.035 278.593 155.603 278.536 155.112C278.478 154.622 278.563 154.054 278.792 153.408ZM284.245 152.204L282.384 157.45C283.193 157.692 283.893 157.656 284.487 157.34C285.08 157.024 285.506 156.499 285.767 155.764C286.028 155.029 286.024 154.362 285.766 153.734C285.507 153.106 285 152.596 284.245 152.205L284.245 152.204Z" fill="white"/>
<path d="M277.214 158.528L286.113 161.684L287.21 158.591L289.052 159.244L286.148 167.431L284.307 166.778L285.404 163.685L276.504 160.528L277.214 158.527L277.214 158.528Z" fill="white"/>
<path d="M275.697 162.802L283.308 165.501L282.641 167.38L281.781 167.075L281.685 167.348C281.952 167.568 282.296 167.898 282.348 168.207C282.4 168.516 282.365 168.842 282.243 169.185L281.92 170.095L280.317 169.527L280.607 168.535C280.779 168.049 280.534 167.55 280.384 167.144C280.234 166.738 279.888 166.439 279.347 166.247L275.02 164.712L275.697 162.802Z" fill="white"/>
<path d="M273.573 173.859C273.673 173.577 273.877 173.49 274.183 173.599L277.021 174.605C277.971 174.942 278.801 174.912 279.506 174.514C280.213 174.116 280.742 173.422 281.093 172.431C281.113 172.375 281.63 170.916 281.646 170.86L280.08 170.305C280.067 170.35 279.554 171.799 279.537 171.847C279.366 172.331 279.125 172.644 278.816 172.784C278.507 172.925 278.173 172.933 277.816 172.806L277.385 172.653L278.116 170.591C278.317 170.026 278.407 169.491 278.383 168.988C278.359 168.484 278.216 168.046 277.95 167.674C277.685 167.301 277.292 167.023 276.77 166.838C276.247 166.653 275.763 166.62 275.311 166.739C274.859 166.856 274.464 167.095 274.125 167.452C273.784 167.81 273.519 168.255 273.329 168.791C273.139 169.326 273.072 169.758 273.118 170.116C273.164 170.474 273.262 170.759 273.411 170.97C273.561 171.182 273.69 171.331 273.798 171.416L273.696 171.703L273.68 171.698C273.373 171.589 273.086 171.623 272.815 171.8C272.544 171.977 272.344 172.253 272.212 172.627L271.76 173.9L273.356 174.466L273.571 173.86L273.573 173.859ZM275.79 172.085C275.29 171.908 274.948 171.596 274.766 171.151C274.585 170.705 274.588 170.215 274.778 169.679C274.922 169.274 275.118 168.998 275.367 168.847C275.616 168.695 275.878 168.669 276.155 168.767C276.433 168.866 276.61 169.042 276.692 169.299C276.773 169.557 276.751 169.861 276.625 170.217L275.943 172.141L275.789 172.086L275.79 172.085Z" fill="white"/>
<path d="M270.212 177.587C270.47 176.859 270.857 176.254 271.373 175.771C271.891 175.289 272.501 174.979 273.206 174.842C273.911 174.706 274.677 174.783 275.506 175.077L275.721 175.153C276.549 175.447 277.195 175.869 277.655 176.42C278.117 176.971 278.396 177.596 278.493 178.296C278.59 178.996 278.509 179.709 278.251 180.438C277.993 181.166 277.649 181.726 277.211 182.151C276.772 182.576 276.275 182.869 275.716 183.029C275.158 183.189 274.58 183.22 273.981 183.122L274.239 181.131C274.56 181.199 274.869 181.206 275.164 181.152C275.459 181.097 275.725 180.966 275.96 180.76C276.194 180.553 276.38 180.258 276.516 179.874C276.652 179.49 276.691 179.114 276.632 178.745C276.572 178.377 276.407 178.046 276.137 177.751C275.867 177.456 275.492 177.224 275.011 177.053L274.857 176.999C274.376 176.828 273.938 176.772 273.543 176.831C273.148 176.89 272.811 177.043 272.533 177.291C272.254 177.54 272.048 177.856 271.911 178.241C271.707 178.816 271.702 179.307 271.899 179.713C272.094 180.118 272.424 180.448 272.886 180.703L271.785 182.395C271.29 182.071 270.876 181.672 270.544 181.195C270.212 180.719 270.009 180.178 269.936 179.572C269.863 178.965 269.954 178.304 270.208 177.586L270.212 177.587Z" fill="white"/>
<path d="M268.851 182.105L279.592 185.914L278.915 187.824L272.977 185.718L272.88 185.991L274.807 189.473L273.925 191.96L271.473 187.181L266.271 189.381L267.142 186.925L271.1 185.36L271.197 185.087L268.174 184.015L268.851 182.105Z" fill="white"/>
<path d="M265.26 191.548C265.45 191.012 265.714 190.567 266.055 190.209C266.394 189.851 266.789 189.614 267.241 189.495C267.691 189.375 268.178 189.409 268.7 189.595C269.223 189.78 269.616 190.059 269.88 190.431C270.145 190.803 270.289 191.242 270.312 191.745C270.335 192.248 270.246 192.783 270.045 193.348L269.314 195.41L269.744 195.563C270.102 195.69 270.435 195.683 270.744 195.542C271.053 195.401 271.294 195.089 271.466 194.604C271.638 194.119 271.649 193.736 271.513 193.426C271.375 193.116 271.145 192.863 270.822 192.67L272.044 191.124C272.39 191.383 272.677 191.703 272.904 192.086C273.131 192.468 273.266 192.919 273.305 193.44C273.345 193.96 273.25 194.544 273.02 195.191C272.669 196.181 272.14 196.875 271.435 197.274C270.729 197.672 269.901 197.703 268.95 197.366L266.111 196.359C265.805 196.25 265.601 196.337 265.501 196.62L265.286 197.227L263.69 196.661L264.141 195.388C264.274 195.014 264.476 194.738 264.745 194.561C265.015 194.384 265.304 194.349 265.611 194.458L265.626 194.463L265.728 194.175C265.62 194.091 265.49 193.942 265.342 193.731C265.192 193.518 265.095 193.234 265.049 192.876C265.003 192.518 265.073 192.077 265.26 191.552L265.26 191.548ZM266.706 192.437C266.516 192.972 266.512 193.463 266.694 193.909C266.875 194.354 267.217 194.667 267.718 194.844L267.872 194.899L268.555 192.974C268.68 192.619 268.702 192.315 268.62 192.059C268.538 191.802 268.359 191.624 268.083 191.526C267.807 191.428 267.544 191.455 267.295 191.605C267.046 191.756 266.85 192.033 266.706 192.438L266.706 192.437Z" fill="white"/>
<path d="M296.953 119.578C294.871 118.839 292.886 117.822 291.057 116.547C287.322 113.941 285.778 109.201 287.284 104.956L289.335 99.1733C290.088 97.0507 291.51 95.3132 293.311 94.1467C294.321 93.4938 295.449 93.0192 296.646 92.758C298.3 95.7831 300.563 99.9273 301.611 101.845C300.258 101.795 298.741 101.74 297.618 101.699C297.197 101.684 296.932 102.138 297.154 102.494C298.263 104.27 300.543 107.923 302.145 110.49C300.631 110.284 298.945 110.054 297.856 109.906C297.481 109.855 297.178 110.201 297.281 110.562L297.667 111.921C297.713 112.037 298.889 116.203 300.093 120.463C299.026 120.238 297.978 119.941 296.952 119.577L296.953 119.578Z" fill="white"/>
<path d="M305.009 120.934C306.708 120.797 308.315 120.238 309.696 119.343C311.498 118.177 312.921 116.438 313.674 114.317L315.725 108.534C317.23 104.291 315.689 99.5516 311.956 96.9451C310.127 95.6685 308.141 94.6502 306.057 93.911C303.973 93.1718 301.79 92.7115 299.565 92.5503C299.209 92.5245 298.856 92.5178 298.506 92.5275C301.184 96.5338 305.024 102.276 306.331 104.231C306.505 104.491 306.311 104.833 305.999 104.822L303.997 104.749L301.845 104.671C303.547 107.396 306.121 111.521 307.296 113.403C307.467 113.679 307.241 114.024 306.918 113.98C305.427 113.777 303.102 113.46 301.209 113.202L304.253 120.966L304.788 122.369L305.01 120.933L305.009 120.934Z" fill="#4A4A4A"/>
</g>
<path d="M28.5477 408.228C14.9247 403.396 1.93353 396.741 -10.0291 388.396C-34.4686 371.341 -44.5653 340.317 -34.7125 312.538L-21.2868 274.684C-16.3592 260.791 -7.05017 249.417 4.73598 241.781C11.3421 237.506 18.7252 234.4 26.5602 232.689C37.3755 252.487 52.1849 279.611 59.0381 292.161C50.1863 291.837 40.2602 291.475 32.912 291.209C30.158 291.11 28.4223 294.084 29.8751 296.413C37.1304 308.039 52.0448 331.945 62.5258 348.744C52.6173 347.394 41.5856 345.895 34.4641 344.926C32.009 344.589 30.0222 346.853 30.699 349.221L33.2259 358.117C33.5268 358.875 41.2128 386.14 49.0875 414.021C42.1082 412.548 35.2508 410.605 28.5412 408.226L28.5477 408.228Z" fill="white" fill-opacity="0.05"/>
<path d="M81.1133 416.982C92.2365 416.096 102.758 412.456 111.802 406.613C123.599 399.003 132.908 387.649 137.824 373.789L151.224 336.006C161.056 308.284 150.938 277.304 126.472 260.248C114.485 251.895 101.47 245.228 87.8151 240.385C74.1604 235.542 59.8596 232.52 45.2878 231.454C42.9553 231.283 40.6453 231.238 38.3491 231.299C55.9126 257.497 81.1026 295.049 89.674 307.833C90.8134 309.529 89.5461 311.765 87.4989 311.689L74.387 311.206L60.2901 310.68C71.4538 328.499 88.3423 355.472 96.0453 367.78C97.17 369.58 95.6885 371.836 93.5761 371.546C83.8037 370.211 68.5787 368.125 56.179 366.428L76.1582 417.188L79.6691 426.36L81.1156 416.976L81.1133 416.982Z" fill="#4A4A4A" fill-opacity="0.05"/>
<path d="M161.663 43.6689L162.64 44.0152L162.275 45.0444L161.766 45.9335L161.914 46.0603L162.736 45.4605L163.732 44.9969L164.175 45.9264L163.187 46.4079L162.204 46.6681L162.209 46.863L163.22 47.0284L164.249 47.3935L163.903 48.3699L162.874 48.0048L161.984 47.4964L161.858 47.6445L162.457 48.4663L162.921 49.4625L161.992 49.9053L161.51 48.9175L161.25 47.934L161.055 47.9391L160.889 48.95L160.524 49.9792L159.548 49.6329L159.913 48.6037L160.422 47.7145L160.273 47.5877L159.452 48.1875L158.455 48.6511L158.013 47.7216L159 47.2401L159.984 46.9799L159.979 46.785L158.968 46.6196L157.939 46.2546L158.285 45.2782L159.314 45.6432L160.203 46.1517L160.33 46.0035L159.73 45.1818L159.267 44.1855L160.196 43.7427L160.678 44.7305L160.938 45.714L161.133 45.7089L161.298 44.698L161.663 43.6689ZM159.136 50.7945L160.112 51.1408L159.747 52.17L159.239 53.0592L159.387 53.186L160.209 52.5862L161.205 52.1225L161.648 53.052L160.66 53.5335L159.677 53.7937L159.682 53.9886L160.693 54.1541L161.722 54.5191L161.375 55.4955L160.346 55.1305L159.457 54.622L159.33 54.7701L159.93 55.5919L160.394 56.5882L159.464 57.031L158.983 56.0432L158.723 55.0596L158.528 55.0648L158.362 56.0756L157.997 57.1048L157.021 56.7585L157.386 55.7293L157.894 54.8401L157.746 54.7133L156.924 55.3131L155.928 55.7768L155.485 54.8473L156.473 54.3658L157.457 54.1056L157.451 53.9106L156.441 53.7452L155.411 53.3802L155.758 52.4038L156.787 52.7688L157.676 53.2773L157.803 53.1292L157.203 52.3074L156.739 51.3111L157.669 50.8683L158.15 51.8561L158.411 52.8397L158.606 52.8345L158.771 51.8237L159.136 50.7945ZM156.609 57.9201L157.585 58.2664L157.22 59.2956L156.712 60.1848L156.86 60.3116L157.682 59.7118L158.678 59.2482L159.121 60.1776L158.133 60.6592L157.149 60.9193L157.154 61.1143L158.165 61.2797L159.194 61.6447L158.848 62.6211L157.819 62.2561L156.93 61.7476L156.803 61.8957L157.403 62.7175L157.866 63.7138L156.937 64.1566L156.455 63.1688L156.195 62.1853L156 62.1904L155.835 63.2012L155.47 64.2304L154.493 63.8841L154.858 62.8549L155.367 61.9658L155.219 61.8389L154.397 62.4388L153.401 62.9024L152.958 61.9729L153.946 61.4914L154.929 61.2312L154.924 61.0363L153.913 60.8709L152.884 60.5058L153.23 59.5294L154.26 59.8945L155.149 60.4029L155.276 60.2548L154.676 59.433L154.212 58.4367L155.142 57.994L155.623 58.9818L155.883 59.9653L156.078 59.9602L156.244 58.9493L156.609 57.9201ZM154.081 65.0458L155.058 65.3921L154.693 66.4213L154.184 67.3104L154.332 67.4372L155.154 66.8374L156.151 66.3738L156.593 67.3033L155.606 67.7848L154.622 68.045L154.627 68.2399L155.638 68.4053L156.667 68.7704L156.321 69.7468L155.292 69.3817L154.402 68.8733L154.276 69.0214L154.875 69.8432L155.339 70.8394L154.41 71.2822L153.928 70.2944L153.668 69.3109L153.473 69.316L153.308 70.3269L152.943 71.3561L151.966 71.0098L152.331 69.9806L152.84 69.0914L152.692 68.9646L151.87 69.5644L150.873 70.028L150.431 69.0985L151.418 68.617L152.402 68.3568L152.397 68.1619L151.386 67.9965L150.357 67.6315L150.703 66.6551L151.732 67.0201L152.622 67.5286L152.748 67.3804L152.149 66.5587L151.685 65.5624L152.614 65.1196L153.096 66.1074L153.356 67.0909L153.551 67.0858L153.716 66.0749L154.081 65.0458ZM150.366 75.5216L151.342 75.8679L150.977 76.8971L150.469 77.7863L150.617 77.9131L151.439 77.3133L152.435 76.8496L152.878 77.7791L151.89 78.2606L150.906 78.5208L150.912 78.7157L151.922 78.8812L152.952 79.2462L152.605 80.2226L151.576 79.8576L150.687 79.3491L150.56 79.4972L151.16 80.319L151.624 81.3153L150.694 81.7581L150.213 80.7703L149.952 79.7867L149.757 79.7919L149.592 80.8027L149.227 81.8319L148.251 81.4856L148.616 80.4564L149.124 79.5672L148.976 79.4404L148.154 80.0402L147.158 80.5039L146.715 79.5744L147.703 79.0929L148.686 78.8327L148.681 78.6378L147.67 78.4723L146.641 78.1073L146.988 77.1309L148.017 77.4959L148.906 78.0044L149.033 77.8563L148.433 77.0345L147.969 76.0382L148.899 75.5954L149.38 76.5832L149.641 77.5668L149.835 77.5616L150.001 76.5508L150.366 75.5216ZM147.839 82.6472L148.815 82.9935L148.45 84.0227L147.942 84.9119L148.09 85.0387L148.911 84.4389L149.908 83.9753L150.35 84.9048L149.363 85.3863L148.379 85.6465L148.384 85.8414L149.395 86.0068L150.424 86.3718L150.078 87.3482L149.049 86.9832L148.16 86.4747L148.033 86.6229L148.633 87.4446L149.096 88.4409L148.167 88.8837L147.685 87.8959L147.425 86.9124L147.23 86.9175L147.065 87.9284L146.7 88.9575L145.723 88.6112L146.088 87.582L146.597 86.6929L146.449 86.5661L145.627 87.1659L144.631 87.6295L144.188 86.7L145.176 86.2185L146.159 85.9583L146.154 85.7634L145.143 85.598L144.114 85.2329L144.46 84.2565L145.49 84.6216L146.379 85.13L146.505 84.9819L145.906 84.1601L145.442 83.1639L146.372 82.7211L146.853 83.7089L147.113 84.6924L147.308 84.6873L147.474 83.6764L147.839 82.6472ZM145.311 89.7729L146.288 90.1192L145.923 91.1484L145.414 92.0375L145.562 92.1644L146.384 91.5645L147.38 91.1009L147.823 92.0304L146.835 92.5119L145.852 92.7721L145.857 92.967L146.868 93.1324L147.897 93.4975L147.551 94.4739L146.522 94.1088L145.632 93.6004L145.506 93.7485L146.105 94.5703L146.569 95.5666L145.64 96.0093L145.158 95.0216L144.898 94.038L144.703 94.0431L144.537 95.054L144.172 96.0832L143.196 95.7369L143.561 94.7077L144.07 93.8185L143.921 93.6917L143.1 94.2915L142.103 94.7551L141.661 93.8257L142.648 93.3441L143.632 93.084L143.627 92.889L142.616 92.7236L141.587 92.3586L141.933 91.3822L142.962 91.7472L143.851 92.2557L143.978 92.1076L143.378 91.2858L142.915 90.2895L143.844 89.8467L144.326 90.8345L144.586 91.818L144.781 91.8129L144.946 90.8021L145.311 89.7729ZM142.784 96.8985L143.76 97.2448L143.395 98.274L142.887 99.1632L143.035 99.29L143.857 98.6902L144.853 98.2265L145.296 99.156L144.308 99.6375L143.325 99.8977L143.33 100.093L144.341 100.258L145.37 100.623L145.023 101.6L143.994 101.234L143.105 100.726L142.978 100.874L143.578 101.696L144.042 102.692L143.112 103.135L142.631 102.147L142.371 101.164L142.176 101.169L142.01 102.18L141.645 103.209L140.669 102.862L141.034 101.833L141.542 100.944L141.394 100.817L140.572 101.417L139.576 101.881L139.133 100.951L140.121 100.47L141.105 100.21L141.099 100.015L140.089 99.8492L139.059 99.4842L139.406 98.5078L140.435 98.8728L141.324 99.3813L141.451 99.2332L140.851 98.4114L140.387 97.4151L141.317 96.9724L141.798 97.9601L142.059 98.9437L142.254 98.9385L142.419 97.9277L142.784 96.8985ZM131.807 108.958C132.194 107.867 132.804 107.098 133.636 106.651C134.477 106.206 135.509 106.201 136.731 106.635L139.054 107.458C140.241 107.879 141.026 108.529 141.408 109.407C141.798 110.288 141.8 111.274 141.413 112.365C141.023 113.465 140.4 114.229 139.545 114.659C138.695 115.1 137.677 115.11 136.489 114.689L134.167 113.865C132.944 113.432 132.146 112.777 131.773 111.902C131.406 111.039 131.417 110.058 131.807 108.958ZM133.312 109.492C133.078 110.151 133.086 110.699 133.338 111.135C133.586 111.58 134.045 111.92 134.713 112.158L137.167 113.028C137.845 113.268 138.417 113.273 138.885 113.043C139.359 112.825 139.7 112.421 139.909 111.832C140.124 111.225 140.112 110.686 139.873 110.215C139.631 109.753 139.185 109.406 138.534 109.175L136.08 108.305C135.385 108.058 134.805 108.031 134.341 108.223C133.882 108.427 133.539 108.85 133.312 109.492ZM130.277 113.859L131.386 114.252C132.028 114.48 132.522 114.774 132.87 115.135C133.226 115.499 133.47 115.927 133.602 116.42C133.74 116.924 133.794 117.498 133.764 118.141L133.728 119.123C133.718 119.486 133.749 119.804 133.82 120.077C133.901 120.353 134.031 120.587 134.21 120.78C134.386 120.981 134.615 121.131 134.897 121.231L134.949 121.25C135.389 121.406 135.79 121.379 136.151 121.171C136.521 120.965 136.798 120.603 136.982 120.084C137.163 119.574 137.169 119.111 137 118.694C136.836 118.289 136.495 117.995 135.976 117.811L135.738 117.727L136.337 116.038L136.548 116.113C137.217 116.35 137.731 116.701 138.091 117.165C138.452 117.63 138.664 118.161 138.73 118.758C138.792 119.364 138.711 119.984 138.486 120.618C138.261 121.251 137.936 121.779 137.508 122.202C137.09 122.628 136.609 122.908 136.066 123.042C135.529 123.188 134.966 123.157 134.377 122.948L134.245 122.901C133.655 122.692 133.198 122.391 132.872 121.998C132.551 121.617 132.332 121.173 132.215 120.666C132.107 120.162 132.062 119.617 132.083 119.03L132.118 118.092C132.138 117.673 132.115 117.333 132.049 117.072C131.992 116.814 131.895 116.611 131.76 116.464C131.629 116.329 131.45 116.221 131.221 116.14L131.168 116.121L129.404 121.095L127.9 120.562L130.277 113.859ZM126.088 125.085C126.334 124.39 126.676 123.818 127.112 123.368C127.549 122.919 128.051 122.622 128.617 122.476C129.189 122.342 129.792 122.388 130.426 122.612L130.663 122.697L130.064 124.386L129.879 124.32C129.387 124.145 128.93 124.177 128.509 124.413C128.097 124.654 127.792 125.055 127.592 125.618C127.389 126.19 127.369 126.678 127.533 127.083C127.693 127.496 127.98 127.776 128.394 127.923L128.526 127.969C128.807 128.069 129.061 128.08 129.287 128.002C129.512 127.923 129.707 127.779 129.87 127.57C130.043 127.364 130.182 127.111 130.288 126.812L130.943 124.965L132.79 125.62L133.316 129.163L133.527 129.238L135.184 124.567L136.688 125.101L134.367 131.646L132.124 130.85L131.633 127.542L131.422 127.467L131.249 127.955C131.102 128.368 130.877 128.739 130.573 129.067C130.265 129.403 129.89 129.637 129.448 129.767C129.014 129.901 128.52 129.869 127.966 129.672L127.808 129.616C127.21 129.404 126.738 129.073 126.392 128.624C126.055 128.178 125.857 127.647 125.798 127.032C125.745 126.429 125.841 125.78 126.088 125.085ZM123.116 134.049L124.99 134.713L126.6 130.174L128.553 130.867L132.83 135.979L131.754 139.013L125.895 136.936L125.352 138.466L123.848 137.933L124.391 136.402L122.517 135.737L123.116 134.049ZM127.533 132.317L126.494 135.247L131.271 136.941L131.355 136.703L127.744 132.392L127.533 132.317Z" fill="white"/>
<g clip-path="url(#clip2_232_518)">
<path d="M29.7771 330.722L29.639 330.673L29.5928 330.804C29.5838 330.828 29.5813 330.854 29.5857 330.88C29.5886 330.89 29.5942 330.9 29.6018 330.908C29.6094 330.915 29.6188 330.921 29.6293 330.924C29.6392 330.928 29.65 330.93 29.6606 330.928C29.6712 330.927 29.6813 330.923 29.69 330.917C29.7099 330.9 29.7247 330.878 29.7323 330.853L29.7785 330.723L29.7771 330.722ZM29.8282 330.889C29.8118 330.946 29.7763 330.995 29.7279 331.029C29.7067 331.042 29.6829 331.05 29.6583 331.052C29.6337 331.054 29.609 331.05 29.5862 331.04C29.566 331.034 29.5473 331.023 29.5315 331.009C29.5156 330.995 29.503 330.978 29.4944 330.958C29.4768 330.913 29.4743 330.862 29.4873 330.815L29.2286 330.92L29.2763 330.785L29.5286 330.694L29.547 330.642L29.3516 330.573L29.3914 330.461L29.9138 330.646L29.8272 330.89L29.8282 330.889ZM29.1376 330.604C29.1162 330.663 29.1072 330.726 29.1114 330.788C29.1151 330.848 29.1301 330.906 29.1555 330.961C29.1808 331.015 29.2163 331.063 29.2601 331.104C29.3533 331.189 29.4762 331.232 29.6019 331.225C29.6613 331.221 29.7195 331.205 29.7735 331.18C29.8273 331.154 29.8759 331.118 29.9165 331.073C29.9578 331.027 29.9895 330.973 30.0097 330.914C30.0314 330.854 30.0414 330.791 30.0391 330.728C30.0362 330.667 30.0216 330.607 29.9961 330.552C29.9553 330.468 29.8909 330.398 29.8108 330.351C29.7308 330.304 29.6386 330.282 29.5458 330.287C29.4864 330.29 29.4282 330.305 29.3747 330.332C29.3201 330.358 29.2712 330.396 29.2305 330.441C29.1877 330.488 29.1549 330.543 29.1341 330.603M30.1354 330.958C30.0812 331.112 29.9694 331.238 29.8243 331.309C29.7546 331.344 29.6788 331.364 29.6014 331.369C29.5218 331.374 29.442 331.363 29.367 331.337C29.2919 331.31 29.2231 331.269 29.1646 331.214C29.1082 331.161 29.0623 331.098 29.0292 331.027C28.9974 330.956 28.9785 330.879 28.9736 330.801C28.9688 330.718 28.9808 330.636 29.0088 330.559C29.0361 330.48 29.079 330.408 29.1348 330.346C29.1877 330.287 29.251 330.239 29.3213 330.204C29.3933 330.17 29.4707 330.151 29.5496 330.147C29.6292 330.142 29.7089 330.153 29.784 330.18C29.859 330.206 29.9279 330.248 29.9863 330.302C30.0433 330.355 30.0893 330.419 30.1217 330.489C30.1553 330.561 30.174 330.638 30.1769 330.717C30.1814 330.801 30.169 330.884 30.1406 330.962M51.0908 278.278C52.0868 278.632 52.6713 279.581 52.2892 280.658C51.9241 281.688 50.8947 282.104 49.8635 281.739C48.8322 281.373 48.2955 280.401 48.6607 279.371C49.0427 278.294 50.0947 277.925 51.0908 278.278ZM49.4473 282.912L52.2818 283.917L52.7232 282.673L52.0327 282.428C52.683 282.214 53.2154 281.729 53.5042 280.915C54.0731 279.311 53.274 277.61 51.5439 276.996C49.8138 276.383 48.1219 277.199 47.5528 278.804C47.2641 279.618 47.372 280.331 47.7419 280.906L47.0538 280.662L46.6129 281.905L49.4478 282.911L49.4473 282.912ZM34.5323 324.964C35.5284 325.318 36.1128 326.267 35.7307 327.345C35.3652 328.375 34.3362 328.791 33.3049 328.425C32.2736 328.059 31.7366 327.088 32.1021 326.058C32.4841 324.98 33.5363 324.611 34.5323 324.964ZM32.8883 329.6L37.9981 331.412L38.4398 330.166L35.4741 329.114C36.1244 328.901 36.6568 328.415 36.9456 327.601C37.5146 325.997 36.7154 324.296 34.9853 323.683C33.2553 323.069 31.5634 323.886 30.9942 325.49C30.7054 326.305 30.8134 327.017 31.1833 327.593L30.4953 327.349L30.0535 328.594L32.8883 329.6ZM45.8413 299.023C45.5569 299.825 44.8763 300.164 43.9531 299.984L45.0064 297.014C45.7775 297.437 46.1557 298.137 45.8412 299.023M46.9372 299.44C47.5321 297.763 46.7399 296.161 44.9726 295.534C43.1707 294.895 41.564 295.699 40.9562 297.412C40.6505 298.274 40.5835 299.14 40.9182 300.04L42.0477 299.754C41.8381 299.14 41.8418 298.453 42.0455 297.879C42.3299 297.077 42.9566 296.477 44.0405 296.659L42.5332 300.909C42.6822 300.976 42.8324 301.043 42.9981 301.102C44.7692 301.716 46.3696 301.041 46.9378 299.439M38.6327 313.41C39.6287 313.763 40.2132 314.713 39.8312 315.79C39.4661 316.819 38.4367 317.236 37.4054 316.87C36.3741 316.505 35.8375 315.532 36.2026 314.503C36.5846 313.426 37.6367 313.057 38.6328 313.41M36.9893 318.044L39.8218 319.048L40.2629 317.804L39.5724 317.559C40.2232 317.344 40.7551 316.86 41.0439 316.046C41.6129 314.442 40.8137 312.741 39.0836 312.128C37.3536 311.514 35.6617 312.33 35.0925 313.935C34.8037 314.75 34.9122 315.461 35.2817 316.038L34.5936 315.793L34.1523 317.038L36.9871 318.043L36.9893 318.044ZM41.1255 306.382C39.4065 305.772 37.7211 306.535 37.0668 308.38C36.7611 309.242 36.7472 309.883 37.0127 310.677L38.2208 310.432C38.054 309.847 38.0503 309.293 38.2423 308.752C38.6068 307.763 39.5771 307.284 40.6681 307.671C41.7591 308.058 42.2109 309.041 41.8709 310.039C41.6793 310.579 41.3275 311.007 40.8288 311.357L41.6129 312.308C42.3193 311.859 42.7129 311.352 43.0182 310.491C43.6725 308.646 42.8448 306.992 41.1255 306.382ZM38.4106 323.482C38.6653 322.764 38.4987 322.178 38.1155 321.678L38.8025 321.922L39.24 320.688L33.5737 318.679L33.1318 319.925L36.3081 321.051C37.2458 321.384 37.6225 321.976 37.3339 322.789C37.2432 323.057 37.1009 323.304 36.9153 323.517L37.9406 324.312C38.1457 324.075 38.3204 323.733 38.4098 323.481M49.6489 289.911C50.2521 289.451 50.7467 288.697 51.0695 287.787C51.5837 286.337 51.2268 285.159 50.1009 284.76C49.177 284.432 48.3605 284.925 47.7288 286.142L47.4374 286.701C47.1004 287.349 46.8083 287.608 46.4883 287.495C46.0501 287.34 45.961 286.798 46.2629 285.946C46.5686 285.084 47.062 284.559 47.5308 284.253L46.7774 283.327C46.0375 283.833 45.4943 284.611 45.1632 285.545C44.5769 287.197 45.0078 288.429 46.0867 288.811C47.0827 289.165 47.8711 288.596 48.4907 287.413L48.783 286.856C49.0431 286.342 49.3036 285.948 49.6834 286.083C50.0977 286.23 50.2026 286.725 49.9604 287.408C49.7013 288.139 49.1778 288.749 48.8418 289.02L49.6468 289.912L49.6489 289.911ZM44.545 306.179C44.7997 305.461 44.633 304.876 44.2493 304.377L44.9385 304.622L45.3759 303.388L39.7097 301.379L39.2682 302.623L42.4446 303.75C43.3823 304.082 43.7589 304.674 43.4704 305.488C43.3797 305.755 43.2374 306.003 43.0517 306.215L44.0771 307.011C44.2822 306.774 44.4569 306.431 44.5463 306.179M48.1706 295.509L48.8924 293.474L50.6114 294.083L51.0577 292.825L49.3387 292.215L49.7504 291.055L48.6242 290.655L48.2125 291.816L45.6276 290.899C44.3128 290.433 43.347 290.671 42.8248 292.143C42.6333 292.683 42.5783 293.364 42.7107 293.855L43.8933 293.87C43.812 293.423 43.849 292.978 43.9638 292.654C44.1844 292.032 44.6362 291.964 45.2048 292.166L47.7652 293.074L47.0434 295.109L48.1706 295.509ZM49.1025 274.891L52.6586 276.153C53.9978 276.628 55.2047 276.085 55.7096 274.7C55.9808 273.974 56.023 273.14 55.415 272.331C56.1834 272.159 56.7838 271.671 57.094 270.797C57.3108 270.185 57.3449 269.525 56.8471 268.822L57.5477 269.07L57.9894 267.825L52.3232 265.815L51.8779 267.071L55.0197 268.185C56.0033 268.534 56.3306 269.27 56.0288 270.121C55.7357 270.947 55.054 271.176 54.0935 270.836L50.94 269.717L50.4938 270.975L53.6355 272.09C54.6192 272.439 54.9382 273.198 54.6452 274.024C54.3438 274.874 53.6665 275.091 52.706 274.75L49.5525 273.631L49.1025 274.891Z" fill="#D9D9D9"/>
<path d="M47.9507 337.967L48.7793 338.261L48.8566 338.043L48.3774 337.589L49.035 337.54L49.1125 337.321L48.2839 337.027L48.229 337.182L48.8532 337.404L48.231 337.448L48.1741 337.609L48.6305 338.036L48.0049 337.814L47.9505 337.968L47.9507 337.967ZM48.4411 336.584L49.1278 336.828L49.0289 337.107L49.1687 337.156L49.4215 336.444L49.2817 336.394L49.1827 336.673L48.496 336.429L48.4416 336.583L48.4411 336.584Z" fill="#575757"/>
<path d="M53.183 311.935L59.8725 293.074L93.4309 304.977L86.7414 323.838L53.183 311.935Z" fill="#BABABA"/>
<path d="M76.2271 300.221C83.0344 302.635 87.9566 308.005 90.0865 314.404C94.3948 311.66 97.6673 307.537 99.3742 302.702C103.596 290.798 97.4636 277.759 85.6764 273.579C73.8891 269.398 60.9114 275.659 56.6893 287.563C54.9682 292.393 54.9113 297.657 56.5279 302.502C62.213 298.875 69.4194 297.806 76.2271 300.221Z" fill="#969696"/>
<path d="M60.9369 343.33C49.1496 339.15 43.017 326.111 47.2391 314.207C48.9462 309.371 52.2189 305.247 56.5275 302.503C58.6569 308.903 63.5787 314.273 70.3864 316.688C77.194 319.102 84.3995 318.033 90.086 314.405C91.7022 319.251 91.6451 324.515 89.924 329.346C85.7019 341.25 72.7242 347.511 60.937 343.33" fill="#6E6E6E"/>
</g>
</g>
<defs>
<radialGradient id="paint0_radial_232_518" cx="0" cy="0" r="1" gradientUnits="userSpaceOnUse" gradientTransform="translate(413 128.062) rotate(36.2126) scale(261.517 399.778)">
<stop offset="0.215129" stop-color="#252525"/>
<stop offset="0.995734" stop-color="#0F0B04"/>
</radialGradient>
<clipPath id="clip0_232_518">
<rect x="355" y="81.5615" width="373" height="244" rx="20" transform="rotate(109.528 355 81.5615)" fill="white"/>
</clipPath>
<clipPath id="clip1_232_518">
<rect width="111" height="28" fill="white" transform="translate(319.251 98.5908) rotate(109.528)"/>
</clipPath>
<clipPath id="clip2_232_518">
<rect width="74" height="57" fill="white" transform="translate(107.019 281.148) rotate(109.528)"/>
</clipPath>
</defs>
</svg>
