<svg width="347" height="272" viewBox="0 0 347 272" fill="none" xmlns="http://www.w3.org/2000/svg">
<g clip-path="url(#clip0_232_663)">
<path opacity="0.07" d="M272.229 96.5685C272.236 96.5723 272.242 96.5737 272.249 96.5775C272.479 96.7099 272.706 96.8112 272.929 96.89C273.006 96.917 273.079 96.9297 273.155 96.9506C273.307 96.9928 273.458 97.0293 273.605 97.047C273.688 97.0572 273.768 97.0579 273.85 97.0603C273.984 97.0642 274.114 97.0603 274.241 97.044C274.32 97.0337 274.397 97.0204 274.473 97.0026C274.597 96.9735 274.714 96.9325 274.829 96.8838C274.896 96.8551 274.964 96.8293 275.029 96.7938C275.149 96.7277 275.259 96.6447 275.366 96.5558C275.413 96.5169 275.464 96.4858 275.508 96.4426C275.653 96.3012 275.786 96.1408 275.899 95.9553C275.912 95.9343 275.92 95.9077 275.932 95.8861C276.018 95.7359 276.099 95.5785 276.163 95.4022C276.158 95.4055 276.152 95.4063 276.146 95.4096C276.228 95.1882 276.289 94.9464 276.333 94.6884L270.927 95.8109L272.229 96.5685Z" fill="#040000"/>
<path d="M273.655 109.005L253.702 139.417C252.984 140.511 251.503 140.826 250.401 140.102L210.683 114.044C209.58 113.32 209.279 111.837 209.997 110.742L229.95 80.3305C230.668 79.2362 232.149 78.9213 233.252 79.6448L272.969 105.703C274.072 106.427 274.373 107.91 273.655 109.005Z" fill="#FFD282"/>
<path opacity="0.1" d="M273.655 109.005L266.943 119.236L223.238 90.5612L229.95 80.3305C230.668 79.2362 232.149 78.9213 233.251 79.6448L272.969 105.703C274.072 106.427 274.373 107.91 273.655 109.005Z" fill="#191919"/>
<path d="M279.138 106.511L274.168 114.086C273.979 114.375 273.753 114.627 273.498 114.848C272.405 115.793 270.817 116.013 269.486 115.359C269.356 115.298 269.224 115.223 269.096 115.139L226.138 86.9548C226.011 86.8713 225.889 86.7793 225.781 86.6845C224.394 85.507 224.066 83.4354 225.085 81.883L230.055 74.3075C231.157 72.6279 233.438 72.1468 235.127 73.2543L278.085 101.439C279.773 102.547 280.24 104.831 279.138 106.511Z" fill="#FFD282"/>
<path d="M261.163 91.4051C261.047 91.5831 260.918 91.7417 260.762 91.8695C259.364 93.1855 256.498 93.004 253.979 91.351C251.459 89.698 250.152 87.1412 250.803 85.3354C250.857 85.1408 250.952 84.96 251.069 84.782C251.185 84.6038 251.314 84.4453 251.47 84.3175C251.543 84.2438 251.61 84.1785 251.694 84.1245C251.705 84.1075 251.719 84.1046 251.733 84.1017C251.77 84.0648 251.814 84.0335 251.868 84.0078C252.417 83.652 253.11 83.464 253.879 83.4583C254.782 83.432 255.782 83.6273 256.787 84.056C257.275 84.2551 257.77 84.5187 258.253 84.836C258.737 85.1532 259.175 85.5017 259.552 85.8704C260.346 86.6216 260.923 87.4616 261.259 88.3005C261.56 89.0075 261.663 89.7185 261.555 90.3638C261.553 90.4229 261.542 90.4765 261.523 90.5245C261.526 90.5385 261.529 90.5526 261.518 90.5695C261.501 90.6681 261.468 90.7556 261.43 90.8516C261.375 91.0461 261.28 91.2268 261.163 91.4051Z" fill="url(#paint0_linear_232_663)"/>
<path d="M252.687 104.182L242.723 97.6445L225.574 123.783L235.538 130.32L252.687 104.182Z" fill="#FFBE4C"/>
<path d="M261.608 90.58L251.648 84.0459L242.638 97.7801L252.597 104.314L261.608 90.58Z" fill="#E2A436"/>
<path d="M256.46 85.5158C256.287 85.7788 256.052 85.952 255.76 86.0274C255.713 86.0446 255.648 86.0507 255.597 86.0539C255.083 86.1168 254.451 85.8963 253.735 85.3782L251.868 84.0074L241.928 76.6852C241.15 76.114 240.714 75.4278 240.613 74.7307C240.595 74.5732 240.586 74.4213 240.59 74.2665C240.621 73.7766 240.823 73.3024 241.188 72.8748C241.216 72.8324 241.252 72.7955 241.303 72.7558C241.336 72.7049 241.378 72.6595 241.437 72.6253C241.649 72.4127 241.904 72.2279 242.198 72.057L251.23 66.928C253.267 65.7648 255.123 66.7277 255.351 69.0617L256.764 83.6646C256.779 83.8081 256.783 83.9319 256.787 84.0557C256.794 84.2301 256.789 84.3848 256.768 84.5285C256.76 84.6327 256.744 84.7313 256.725 84.8159C256.709 84.9145 256.684 85.0075 256.657 85.0865C256.629 85.1655 256.602 85.2445 256.566 85.318C256.535 85.3829 256.499 85.4564 256.46 85.5158Z" fill="url(#paint1_linear_232_663)"/>
<path opacity="0.07" d="M256.46 85.5161C256.287 85.7791 256.052 85.9524 255.76 86.0278C255.713 86.045 255.648 86.0511 255.597 86.0543C255.083 86.1172 254.451 85.8967 253.735 85.3786L251.868 84.0078L241.928 76.6856C241.15 76.1144 240.714 75.4281 240.613 74.731C240.595 74.5736 240.586 74.4217 240.59 74.2669C240.621 73.777 240.823 73.3027 241.188 72.8752C241.216 72.8328 241.252 72.7959 241.303 72.7562C241.336 72.7053 241.378 72.6599 241.434 72.6117L241.437 72.6257C241.28 73.5301 241.709 74.5035 242.745 75.2556L253.879 83.4582L254.552 83.9485C255.443 84.6061 256.227 84.7804 256.768 84.5288C256.76 84.633 256.744 84.7316 256.725 84.8161C256.709 84.9148 256.684 85.0078 256.657 85.0868C256.629 85.1658 256.602 85.2448 256.566 85.3183C256.535 85.3833 256.499 85.4568 256.46 85.5161Z" fill="#191919"/>
<path d="M274.981 96.8297C274.841 96.8954 274.698 96.9471 274.546 96.9933C273.866 97.1784 273.063 97.052 272.23 96.5657L261.555 90.3633L259.554 89.1961C258.794 88.7459 258.34 88.2539 258.193 87.7568C258.176 87.7091 258.156 87.6474 258.152 87.5967C258.105 87.2988 258.171 87.014 258.343 86.7511C258.382 86.6918 258.435 86.6295 258.483 86.5756C258.536 86.5133 258.597 86.4566 258.659 86.3999C258.72 86.3431 258.796 86.2835 258.88 86.2294C258.95 86.1782 259.034 86.1241 259.126 86.0756C259.249 85.9987 259.39 85.9329 259.552 85.8699C259.667 85.8241 259.782 85.7782 259.92 85.735L273.878 81.217C275.127 80.811 276.182 81.0537 276.826 81.7552C277.333 82.2946 277.593 83.12 277.477 84.148L277.424 84.6352L276.368 94.4753C276.328 94.8133 276.26 95.1205 276.149 95.3999C276.142 95.4675 276.117 95.524 276.083 95.5749C276.067 95.6369 276.047 95.6849 276.02 95.7273C275.773 96.2329 275.418 96.6069 274.981 96.8297Z" fill="url(#paint2_linear_232_663)"/>
<path opacity="0.07" d="M259.551 89.1908L272.229 96.5669C273.961 97.5746 275.573 97.0344 276.163 95.4012C275.389 95.9073 274.328 95.8982 273.218 95.2525L260.541 87.8761C259.581 87.317 259.113 86.6736 259.123 86.0745C257.687 86.8745 257.802 88.1731 259.551 89.1908Z" fill="#191919"/>
<path opacity="0.03" d="M279.138 106.511L274.168 114.086C273.979 114.375 273.753 114.627 273.498 114.848C272.41 115.785 270.828 115.996 269.497 115.342L253.702 139.417C252.984 140.511 251.503 140.826 250.401 140.103L210.683 114.044C209.58 113.32 209.279 111.837 209.997 110.743L211.728 108.104L239.671 102.302L240.781 102.071L247.159 100.747L261.025 97.8671L269.848 96.035L278.085 101.439C279.773 102.547 280.24 104.831 279.138 106.511Z" fill="#191919"/>
</g>
<g filter="url(#filter0_d_232_663)">
<path d="M11 124H308V234C308 250.569 294.569 264 278 264H41C24.4315 264 11 250.569 11 234V124Z" fill="white"/>
</g>
<g clip-path="url(#clip1_232_663)">
<path opacity="0.07" d="M141.222 52.426C141.242 52.4193 141.257 52.4089 141.278 52.4021C141.996 52.1728 142.644 51.8902 143.237 51.5721C143.44 51.4626 143.608 51.3331 143.797 51.2139C144.177 50.975 144.541 50.7292 144.859 50.4551C145.041 50.299 145.196 50.1324 145.357 49.9659C145.621 49.6924 145.862 49.4114 146.072 49.1132C146.201 48.9276 146.321 48.741 146.429 48.5471C146.604 48.2321 146.743 47.9075 146.86 47.5732C146.93 47.3762 147.006 47.1839 147.054 46.981C147.146 46.6023 147.182 46.2123 147.201 45.817C147.209 45.6439 147.242 45.477 147.236 45.3014C147.217 44.7264 147.133 44.1413 146.961 43.5486C146.941 43.4814 146.9 43.4142 146.879 43.3468C146.729 42.8779 146.553 42.4068 146.305 41.9358C146.302 41.9528 146.292 41.9675 146.289 41.9846C145.98 41.3897 145.589 40.7984 145.132 40.2122L137.139 53.7086L141.222 52.426Z" fill="#040000"/>
<path d="M170.058 73.2453L195.696 173.356C196.618 176.958 194.444 180.669 190.814 181.598L60.0702 215.081C56.44 216.011 52.75 213.802 51.8275 210.199L26.19 110.089C25.2675 106.487 27.4414 102.776 31.0715 101.846L161.815 68.3633C165.446 67.4337 169.136 69.6427 170.058 73.2453Z" fill="#FFD282"/>
<path opacity="0.1" d="M170.058 73.2452L178.683 106.923L34.8142 143.766L26.1896 110.089C25.2671 106.487 27.441 102.776 31.0712 101.846L161.815 68.3633C165.446 67.4336 169.136 69.6427 170.058 73.2452Z" fill="#191919"/>
<path d="M175.32 56.9596L181.706 81.8966C181.95 82.8461 182.046 83.8031 182.024 84.761C181.914 88.8656 179.335 92.621 175.415 94.1606C175.038 94.3166 174.626 94.4518 174.208 94.5591L32.7963 130.773C32.3774 130.881 31.9513 130.96 31.5464 131.004C26.418 131.663 21.4423 128.384 20.1336 123.274L13.7474 98.3368C12.3314 92.8076 15.6896 87.0973 21.2467 85.6742L162.658 49.4599C168.215 48.0372 173.904 51.4304 175.32 56.9596Z" fill="#FFD282"/>
<path d="M109.197 65.7699C109.347 66.356 109.434 66.9288 109.403 67.5024C109.49 72.9552 103.622 78.6239 95.328 80.7478C87.0344 82.8717 79.1636 80.7216 76.6193 75.8979C76.3158 75.4102 76.1169 74.866 75.9668 74.2799C75.8167 73.6934 75.7295 73.1206 75.7611 72.5471C75.7455 72.2535 75.737 71.9878 75.7843 71.7079C75.77 71.652 75.7908 71.617 75.8116 71.5819C75.8037 71.4351 75.8238 71.2812 75.8718 71.1201C76.176 69.2864 77.1092 67.4706 78.5683 65.8471C80.2419 63.9012 82.5674 62.1748 85.3914 60.8862C86.7441 60.2422 88.244 59.7093 89.8358 59.3016C91.4277 58.894 92.9991 58.6403 94.4949 58.5549C97.5907 58.3275 100.46 58.7236 102.863 59.6254C104.923 60.3478 106.614 61.4915 107.762 62.9532C107.882 63.0714 107.973 63.1968 108.037 63.3292C108.072 63.35 108.107 63.3708 108.121 63.4266C108.297 63.6494 108.418 63.8864 108.545 64.1514C108.848 64.6392 109.047 65.1831 109.197 65.7699Z" fill="url(#paint3_linear_232_663)"/>
<path d="M119.789 108.024L86.9885 116.424L109.024 202.467L141.824 194.067L119.789 108.024Z" fill="#FFBE4C"/>
<path d="M108.316 63.2576L75.532 71.6533L87.11 116.864L119.894 108.468L108.316 63.2576Z" fill="#E2A436"/>
<path d="M87.8301 64.3685C88.0518 65.2343 87.9656 66.0595 87.5644 66.8169C87.5092 66.9501 87.3982 67.0975 87.3079 67.2099C86.4548 68.4104 84.7819 69.315 82.324 69.8254L75.8715 71.1207L41.4707 77.9665C38.7819 78.5063 36.5075 78.1067 34.8511 76.9838C34.486 76.7202 34.1488 76.4494 33.8328 76.1435C32.8622 75.1422 32.2532 73.8103 32.0555 72.2246C32.0197 72.0849 32.0119 71.9381 32.0248 71.7563C31.9819 71.5887 31.9669 71.414 32.0078 71.225C31.9679 70.3722 32.0677 69.4836 32.2722 68.5389L38.7981 39.7595C40.2569 33.2561 45.8315 31.2039 51.1678 35.1935L84.527 60.1856C84.857 60.4285 85.124 60.6577 85.3911 60.8869C85.7705 61.2063 86.0868 61.5118 86.3473 61.832C86.5513 62.0475 86.7274 62.2703 86.8684 62.4722C87.0444 62.695 87.1926 62.9249 87.3056 63.134C87.4187 63.3431 87.5318 63.5522 87.6169 63.7685C87.6949 63.9568 87.7801 64.1731 87.8301 64.3685Z" fill="url(#paint4_linear_232_663)"/>
<path opacity="0.07" d="M87.8301 64.3686C88.0518 65.2343 87.9656 66.0595 87.5644 66.817C87.5092 66.9501 87.3982 67.0976 87.3079 67.21C86.4548 68.4105 84.7819 69.315 82.324 69.8255L75.8715 71.1208L41.4707 77.9665C38.7819 78.5063 36.5076 78.1067 34.8511 76.9839C34.486 76.7203 34.1489 76.4495 33.8328 76.1436C32.8622 75.1423 32.2533 73.8103 32.0555 72.2246C32.0197 72.085 32.0119 71.9382 32.0248 71.7563C31.9819 71.5888 31.9669 71.4141 31.9727 71.2043L32.0078 71.225C33.6067 73.2852 36.4716 74.2477 40.0329 73.5142L78.5679 65.8475L80.8861 65.3728C83.9727 64.7609 85.8391 63.4497 86.3472 61.8317C86.5512 62.0473 86.7273 62.27 86.8683 62.472C87.0444 62.6947 87.1925 62.9246 87.3056 63.1337C87.4186 63.3428 87.5317 63.5519 87.6169 63.7682C87.6949 63.9568 87.7801 64.1731 87.8301 64.3686Z" fill="#191919"/>
<path d="M147.04 47.1522C146.91 47.5725 146.744 47.972 146.551 48.3786C145.638 50.1594 143.835 51.603 141.218 52.422L107.762 62.9541L101.481 64.9197C99.0798 65.6536 97.1781 65.6645 95.8529 65.0218C95.7197 64.9666 95.5515 64.8907 95.4391 64.8004C94.7232 64.3291 94.2509 63.6466 94.0292 62.7812C93.9792 62.5857 93.9499 62.3551 93.9278 62.1525C93.8985 61.9219 93.8971 61.6842 93.8957 61.4465C93.8944 61.2088 93.9138 60.936 93.9611 60.656C93.9877 60.4111 94.035 60.1312 94.1103 59.8441C94.1849 59.4381 94.3153 59.0179 94.4946 58.5557C94.6185 58.2264 94.7425 57.897 94.9152 57.5255L112.155 19.5752C113.695 16.1757 116.223 14.4272 118.928 14.4185C121.033 14.3854 123.262 15.4215 125.197 17.6336L126.119 18.6771L144.753 39.7336C145.386 40.4641 145.901 41.195 146.276 41.962C146.403 42.1081 146.473 42.2685 146.516 42.4361C146.615 42.5893 146.679 42.7218 146.714 42.8614C147.304 44.3473 147.41 45.8076 147.04 47.1522Z" fill="url(#paint5_linear_232_663)"/>
<path opacity="0.07" d="M101.465 64.9166L141.221 52.4262C146.651 50.7208 148.605 46.3016 146.306 41.9366C145.886 44.5303 143.836 46.7401 140.355 47.834L100.6 60.3215C97.5875 61.2676 95.3404 61.0185 94.1038 59.8484C93.0319 64.3965 95.9786 66.6409 101.465 64.9166Z" fill="#191919"/>
<path opacity="0.03" d="M175.32 56.9593L181.706 81.8964C181.95 82.8459 182.046 83.8029 182.024 84.7608C181.907 88.8375 179.321 92.5649 175.4 94.1042L195.696 173.355C196.618 176.957 194.445 180.668 190.814 181.598L60.0701 215.08C56.44 216.01 52.75 213.801 51.8275 210.199L49.6034 201.514L90.9216 131.748L92.5629 128.977L101.994 113.052L122.497 78.432L135.543 56.4043L162.658 49.4603C168.215 48.0369 173.904 51.4302 175.32 56.9593Z" fill="#191919"/>
</g>
<g clip-path="url(#clip2_232_663)">
<path d="M297.494 166.98C298.587 167.959 298.678 169.638 297.699 170.731C296.989 171.523 296.914 172.7 297.518 173.576L297.796 173.98C299.469 176.408 299.671 179.559 298.321 182.18C297.649 183.484 296.048 183.997 294.743 183.326C293.439 182.654 292.926 181.052 293.598 179.748C294.051 178.868 293.984 177.81 293.422 176.994L293.144 176.591C291.147 173.693 291.395 169.805 293.743 167.185C294.722 166.093 296.402 166.001 297.494 166.98Z" fill="#191308"/>
<path d="M321.973 180.785C323.335 181.329 323.999 182.874 323.456 184.237L322.493 186.652C321.168 189.976 318.163 192.335 314.619 192.834C312.963 193.067 311.559 194.169 310.94 195.722L309.977 198.137C309.433 199.5 307.888 200.164 306.526 199.621C305.163 199.078 304.499 197.532 305.042 196.17L306.005 193.755C307.33 190.43 310.336 188.071 313.879 187.573C315.535 187.34 316.939 186.238 317.559 184.684L318.521 182.269C319.065 180.906 320.61 180.242 321.973 180.785Z" fill="#191308"/>
<path d="M329.263 213.953C328.104 213.171 326.596 213.133 325.4 213.855C322.121 215.836 317.942 215.497 315.026 213.013L314.364 212.448C313.247 211.497 313.113 209.82 314.064 208.704C315.016 207.587 316.692 207.453 317.809 208.404L318.472 208.969C319.647 209.97 321.331 210.107 322.653 209.308C325.622 207.515 329.362 207.61 332.237 209.552L333.17 210.182C334.386 211.004 334.706 212.655 333.884 213.871C333.063 215.086 331.412 215.406 330.196 214.584L329.263 213.953Z" fill="#191308"/>
<path d="M284.989 171.166C285.853 170.571 287.036 170.789 287.632 171.653C288.227 172.517 288.009 173.7 287.145 174.295C286.281 174.89 285.098 174.673 284.503 173.809C283.908 172.945 284.125 171.762 284.989 171.166Z" fill="#191308"/>
<path d="M303.785 186.208C303.19 185.345 302.007 185.127 301.143 185.722C300.279 186.317 300.061 187.5 300.656 188.364C301.252 189.228 302.435 189.446 303.299 188.851C304.162 188.255 304.38 187.072 303.785 186.208Z" fill="#191308"/>
<path d="M316.635 199.377C317.499 198.781 318.682 198.999 319.278 199.863C319.873 200.726 319.655 201.91 318.791 202.505C317.927 203.1 316.744 202.883 316.149 202.018C315.554 201.155 315.771 199.972 316.635 199.377Z" fill="#191308"/>
<path d="M322.593 219.041C321.998 218.178 320.815 217.96 319.951 218.555C319.087 219.15 318.869 220.333 319.465 221.197C320.06 222.061 321.243 222.279 322.107 221.684C322.971 221.088 323.188 219.905 322.593 219.041Z" fill="#191308"/>
<path d="M276.434 228.294C268.079 229.441 263.728 229.764 261.855 227.045C259.781 224.035 262.272 219.514 267.256 210.473L276.39 193.902C279.807 187.703 281.814 184.061 284.262 182.884L284.227 182.971C284.179 183.091 284.109 183.267 284.02 183.494C283.842 183.947 283.588 184.603 283.279 185.422C282.662 187.059 281.828 189.351 280.953 191.977C279.221 197.18 277.271 203.876 276.625 209.394C276.234 212.733 276.167 216.952 276.191 220.263C276.203 221.934 276.239 223.403 276.272 224.455C276.288 224.982 276.304 225.404 276.315 225.697L276.329 226.035L276.434 228.294Z" fill="#191308"/>
<path d="M297.015 225.401L298.002 225.262C306.497 224.067 310.745 223.469 312.071 220.45C313.398 217.431 310.963 213.899 306.095 206.834L301.294 199.867L301.268 199.916C301.16 200.119 301.003 200.417 300.811 200.794C300.425 201.548 299.9 202.607 299.347 203.823C298.216 206.311 297.065 209.244 296.643 211.536C296.222 213.827 296.253 216.977 296.424 219.706C296.508 221.038 296.621 222.215 296.713 223.057C296.759 223.477 296.8 223.813 296.828 224.04C296.843 224.154 296.854 224.241 296.861 224.298L296.87 224.361L296.872 224.375L297.015 225.401Z" fill="#191308"/>
<path d="M289.226 184.779L289.559 183.957C291.463 185.602 293.526 188.595 296.492 192.899L297.921 194.972L296.77 197.065L296.72 197.157C296.687 197.218 296.639 197.306 296.579 197.419C296.459 197.645 296.288 197.97 296.081 198.374C295.667 199.183 295.106 200.318 294.511 201.624C293.349 204.181 291.965 207.607 291.419 210.574C290.873 213.541 290.946 217.236 291.122 220.039C291.212 221.471 291.333 222.731 291.432 223.634C291.482 224.086 291.525 224.451 291.558 224.705C291.573 224.832 291.586 224.931 291.596 225L291.755 226.141L281.718 227.553L281.64 225.885L281.637 225.805L281.624 225.487C281.613 225.208 281.597 224.8 281.582 224.29C281.55 223.27 281.515 221.844 281.504 220.224C281.48 216.953 281.551 213.007 281.902 210.011C282.481 205.062 284.282 198.797 285.994 193.655C286.841 191.109 287.652 188.883 288.25 187.295C288.549 186.501 288.795 185.868 288.965 185.435C289.05 185.219 289.116 185.053 289.16 184.942L289.21 184.817L289.222 184.787L289.226 184.779Z" fill="#191308"/>
<path d="M314.054 170.284C314.595 170.311 315.565 170.455 316.189 171.361C316.814 172.268 316.603 173.225 316.436 173.74C316.277 174.227 315.997 174.794 315.73 175.334L315.525 175.75L315.684 176.148C315.9 176.687 316.132 177.266 316.248 177.764C316.378 178.326 316.474 179.251 315.819 180.085C315.177 180.902 314.271 181.043 313.706 181.067C313.192 181.088 312.567 181.022 311.972 180.96L311.522 180.913L311.484 180.909L311.093 181.239C310.625 181.633 310.14 182.042 309.704 182.315C309.241 182.604 308.395 183.025 307.386 182.693C306.342 182.349 305.93 181.472 305.75 180.938C305.588 180.454 305.481 179.837 305.381 179.263L305.311 178.858L304.957 178.648C304.456 178.35 303.918 178.031 303.524 177.707C303.089 177.349 302.416 176.651 302.466 175.554C302.515 174.492 303.21 173.851 303.645 173.522C304.055 173.211 304.61 172.904 305.144 172.607L305.592 172.359L305.602 172.322L305.718 171.884C305.871 171.307 306.033 170.699 306.236 170.226C306.459 169.707 306.913 168.91 307.906 168.601C308.918 168.286 309.749 168.705 310.227 169.027C310.652 169.312 311.11 169.735 311.536 170.129L311.852 170.42L312.313 170.376C312.913 170.319 313.543 170.258 314.054 170.284Z" fill="#191308"/>
<path d="M333.776 203.738C335.702 202.41 336.707 200.331 336.171 198.237C335.764 196.649 334.571 195.446 332.957 194.778C332.908 193.032 332.208 191.489 330.869 190.543C329.103 189.297 326.802 189.495 324.876 190.823C323.758 191.593 323.098 192.779 322.691 193.868C322.274 194.982 322.046 196.199 321.918 197.278C321.789 198.368 321.754 199.383 321.751 200.121C321.749 200.491 321.756 200.797 321.763 201.013C321.766 201.121 321.77 201.207 321.773 201.267C321.813 201.923 322.218 202.607 322.816 202.877L322.82 202.879L322.911 202.919C322.967 202.943 323.046 202.977 323.145 203.019C323.345 203.103 323.628 203.217 323.975 203.348C324.665 203.607 325.626 203.937 326.69 204.204C327.745 204.468 328.963 204.688 330.153 204.695C331.315 204.702 332.659 204.508 333.776 203.738Z" fill="#191308"/>
</g>
<defs>
<filter id="filter0_d_232_663" x="7" y="124" width="305" height="148" filterUnits="userSpaceOnUse" color-interpolation-filters="sRGB">
<feFlood flood-opacity="0" result="BackgroundImageFix"/>
<feColorMatrix in="SourceAlpha" type="matrix" values="0 0 0 0 0 0 0 0 0 0 0 0 0 0 0 0 0 0 127 0" result="hardAlpha"/>
<feOffset dy="4"/>
<feGaussianBlur stdDeviation="2"/>
<feComposite in2="hardAlpha" operator="out"/>
<feColorMatrix type="matrix" values="0 0 0 0 0.816667 0 0 0 0 0.816667 0 0 0 0 0.816667 0 0 0 0.25 0"/>
<feBlend mode="normal" in2="BackgroundImageFix" result="effect1_dropShadow_232_663"/>
<feBlend mode="normal" in="SourceGraphic" in2="effect1_dropShadow_232_663" result="shape"/>
</filter>
<linearGradient id="paint0_linear_232_663" x1="251.069" y1="84.7818" x2="261.163" y2="91.405" gradientUnits="userSpaceOnUse">
<stop offset="0.0338" stop-color="#FFBE4C"/>
<stop offset="0.9903" stop-color="#FFBE4C"/>
</linearGradient>
<linearGradient id="paint1_linear_232_663" x1="243.533" y1="69.2577" x2="260.027" y2="80.079" gradientUnits="userSpaceOnUse">
<stop offset="0.0338" stop-color="#FFBE4C"/>
<stop offset="0.9903" stop-color="#FFBE4C"/>
</linearGradient>
<linearGradient id="paint2_linear_232_663" x1="261.908" y1="81.3178" x2="278.402" y2="92.1392" gradientUnits="userSpaceOnUse">
<stop offset="0.0338" stop-color="#FFBE4C"/>
<stop offset="0.9903" stop-color="#FFBE4C"/>
</linearGradient>
<linearGradient id="paint3_linear_232_663" x1="75.9665" y1="74.2797" x2="109.197" y2="65.7697" gradientUnits="userSpaceOnUse">
<stop offset="0.0338" stop-color="#FFBE4C"/>
<stop offset="0.9903" stop-color="#FFBE4C"/>
</linearGradient>
<linearGradient id="paint4_linear_232_663" x1="28.9526" y1="60.3763" x2="83.2469" y2="46.4719" gradientUnits="userSpaceOnUse">
<stop offset="0.0338" stop-color="#FFBE4C"/>
<stop offset="0.9903" stop-color="#FFBE4C"/>
</linearGradient>
<linearGradient id="paint5_linear_232_663" x1="89.4492" y1="44.8954" x2="143.744" y2="30.9911" gradientUnits="userSpaceOnUse">
<stop offset="0.0338" stop-color="#FFBE4C"/>
<stop offset="0.9903" stop-color="#FFBE4C"/>
</linearGradient>
<clipPath id="clip0_232_663">
<rect width="63.355" height="63.355" fill="white" transform="translate(240.754 58) rotate(33.2685)"/>
</clipPath>
<clipPath id="clip1_232_663">
<rect width="180" height="180" fill="white" transform="translate(0 44.6553) rotate(-14.3643)"/>
</clipPath>
<clipPath id="clip2_232_663">
<rect width="85" height="85" fill="white" transform="translate(263.385 153) rotate(10.4283)"/>
</clipPath>
</defs>
</svg>
